<svg width="331" height="86" viewBox="0 0 331 86" fill="none" xmlns="http://www.w3.org/2000/svg">
<path d="M19.22 68.8C16.22 68.8 13.43 68.53 10.85 67.99C8.27 67.45 6.11 66.55 4.37 65.29C3.17 64.39 2.24 63.25 1.58 61.87C0.98 60.49 0.68 59.08 0.68 57.64C0.68 55.84 1.19 54.16 2.21 52.6C3.23 51.04 4.85 49.99 7.07 49.45C7.37 49.39 7.64 49.36 7.88 49.36C8.18 49.3 8.45 49.27 8.69 49.27C9.89 49.27 10.94 49.54 11.84 50.08C12.8 50.62 13.46 51.25 13.82 51.97C13.58 52.15 13.25 52.48 12.83 52.96C12.41 53.38 12.14 53.74 12.02 54.04C11.12 55.54 10.67 57.04 10.67 58.54C10.67 60.58 11.45 62.26 13.01 63.58C14.63 64.84 16.73 65.47 19.31 65.47C21.65 65.47 23.84 64.9 25.88 63.76C27.98 62.56 29.66 60.97 30.92 58.99C32.24 57.01 32.9 54.73 32.9 52.15C32.9 50.23 32.45 48.19 31.55 46.03C30.77 44.17 29.69 42.52 28.31 41.08C26.99 39.64 25.73 38.29 24.53 37.03C22.91 35.29 21.35 33.61 19.85 31.99C18.41 30.31 17.21 28.51 16.25 26.59C15.35 24.61 14.9 22.39 14.9 19.93C14.9 17.59 15.38 15.31 16.34 13.09C17.36 10.87 18.8 8.98 20.66 7.41999C22.76 5.62 25.16 4.36 27.86 3.63999C30.56 2.92 33.38 2.56 36.32 2.56C39.98 2.56 42.86 3.04 44.96 4C47.12 4.89999 48.65 6.07 49.55 7.51C50.51 8.95 50.99 10.48 50.99 12.1C50.99 13.66 50.63 15.16 49.91 16.6C49.25 18.04 48.32 19.27 47.12 20.29C45.92 21.25 44.6 21.85 43.16 22.09C42.92 22.15 42.68 22.18 42.44 22.18C42.2 22.18 41.93 22.18 41.63 22.18C40.31 22.18 39.14 21.88 38.12 21.28C37.16 20.68 36.68 19.66 36.68 18.22C36.68 18.04 36.68 17.83 36.68 17.59C36.74 17.35 36.8 17.11 36.86 16.87C37.94 16.87 39.05 16.48 40.19 15.7C41.33 14.92 42.08 14.05 42.44 13.09C42.74 12.31 42.89 11.59 42.89 10.93C42.89 9.31 42.14 8.05 40.64 7.15C39.2 6.19 37.49 5.71 35.51 5.71C33.17 5.71 31.07 6.22 29.21 7.24C27.41 8.2 26 9.49 24.98 11.11C23.96 12.67 23.45 14.38 23.45 16.24C23.45 18.1 24.02 19.9 25.16 21.64C26.12 23.02 27.32 24.46 28.76 25.96C30.2 27.4 31.67 28.81 33.17 30.19C34.67 31.51 35.96 32.74 37.04 33.88C39.5 36.28 41.27 38.74 42.35 41.26C43.43 43.72 43.97 46.15 43.97 48.55C43.97 51.31 43.31 53.92 41.99 56.38C40.73 58.78 38.96 60.91 36.68 62.77C34.4 64.63 31.76 66.1 28.76 67.18C25.76 68.26 22.58 68.8 19.22 68.8ZM65.8794 23.8C64.3194 23.26 63.5394 22.24 63.5394 20.74C63.5394 19.36 64.0794 17.95 65.1594 16.51C66.2994 15.01 67.5294 14.05 68.8494 13.63C69.1494 13.51 69.3894 13.45 69.5694 13.45C69.8094 13.45 70.0494 13.45 70.2894 13.45C71.3094 13.45 72.1494 13.75 72.8094 14.35C73.4694 14.95 73.7994 15.64 73.7994 16.42C73.7994 17.5 73.2294 18.4 72.0894 19.12C71.1894 19 70.3194 19.21 69.4794 19.75C68.6394 20.29 67.8894 20.95 67.2294 21.73C66.6294 22.51 66.1794 23.2 65.8794 23.8ZM50.3994 67.54C49.6194 67.54 48.8694 67.36 48.1494 67C47.4294 66.7 46.8294 66.07 46.3494 65.11C45.6894 63.67 45.3594 61.96 45.3594 59.98C45.3594 57.82 45.6894 55.42 46.3494 52.78C47.0094 50.08 47.8794 47.32 48.9594 44.5C49.3794 43.48 49.9194 42.22 50.5794 40.72C51.2394 39.22 52.0194 37.72 52.9194 36.22C53.8194 34.72 54.8394 33.49 55.9794 32.53C57.1794 31.51 58.4694 31 59.8494 31C60.5094 31 61.4394 31.03 62.6394 31.09C63.8394 31.15 64.7094 31.15 65.2494 31.09C64.8894 31.33 64.4694 31.81 63.9894 32.53C63.5094 33.25 63.0594 34 62.6394 34.78C62.2194 35.5 61.8894 36.07 61.6494 36.49C60.0894 39.61 58.6194 42.7 57.2394 45.76C55.8594 48.82 54.8094 51.76 54.0894 54.58C53.9694 55.06 53.8794 55.54 53.8194 56.02C53.7594 56.5 53.7294 56.95 53.7294 57.37C53.7294 59.11 54.2994 59.98 55.4394 59.98C55.9194 59.98 56.4294 59.86 56.9694 59.62C57.5694 59.32 58.2594 58.87 59.0394 58.27C60.4194 57.19 61.6194 55.96 62.6394 54.58C63.8394 53.02 64.9794 51.37 66.0594 49.63C67.1394 47.83 68.0694 46.18 68.8494 44.68C69.1494 44.2 69.3594 43.96 69.4794 43.96C69.8394 43.96 70.0194 44.47 70.0194 45.49C70.0194 45.97 69.9294 46.54 69.7494 47.2C69.6294 47.8 69.4194 48.37 69.1194 48.91C68.2794 50.35 67.2894 51.94 66.1494 53.68C65.0094 55.42 63.8394 57.1 62.6394 58.72C61.7994 59.86 60.6894 61.12 59.3094 62.5C57.9294 63.88 56.4594 65.08 54.8994 66.1C53.3394 67.06 51.8394 67.54 50.3994 67.54ZM70.4511 67.54C68.7711 67.54 67.5111 66.94 66.6711 65.74C65.8311 64.48 65.4111 62.8 65.4111 60.7C65.4111 60.4 65.4111 60.1 65.4111 59.8C65.4111 59.5 65.4411 59.2 65.5011 58.9C65.8011 56.62 66.3111 54.04 67.0311 51.16C67.8111 48.28 68.7111 45.25 69.7311 42.07C70.3311 40.27 71.0811 38.02 71.9811 35.32C72.9411 32.56 74.0511 29.62 75.3111 26.5C76.5711 23.32 77.9511 20.17 79.4511 17.05C81.0111 13.93 82.7211 11.11 84.5811 8.59C86.4411 6.01 88.3911 3.94 90.4311 2.38C92.5311 0.819997 94.7511 0.0399984 97.0911 0.0399984C99.0111 0.0399984 100.331 0.519998 101.051 1.48C101.771 2.38 102.131 3.46 102.131 4.72C102.131 6.04 101.891 7.39 101.411 8.77C100.931 10.09 100.451 11.2 99.9711 12.1C98.8911 14.26 97.4811 16.69 95.7411 19.39C94.0011 22.09 92.1711 24.61 90.2511 26.95C89.1111 28.45 87.7011 30.13 86.0211 31.99C84.3411 33.85 82.7511 35.56 81.2511 37.12C79.8111 38.68 78.7611 39.76 78.1011 40.36L76.6611 44.5C76.2411 45.64 75.8211 46.99 75.4011 48.55C75.0411 50.11 74.7111 51.67 74.4111 53.23C74.1711 54.73 73.9611 56.05 73.7811 57.19C73.7211 57.43 73.6911 57.67 73.6911 57.91C73.6911 58.15 73.6911 58.36 73.6911 58.54C73.6911 60.34 74.3811 61.24 75.7611 61.24C76.6011 61.24 77.6511 60.85 78.9111 60.07C80.1111 59.35 81.2511 58.42 82.3311 57.28C83.4711 56.08 84.2811 55.18 84.7611 54.58C85.9611 53.02 87.1011 51.37 88.1811 49.63C89.2611 47.83 90.1911 46.18 90.9711 44.68C91.2711 44.2 91.4811 43.96 91.6011 43.96C91.9611 43.96 92.1411 44.47 92.1411 45.49C92.1411 45.97 92.0511 46.54 91.8711 47.2C91.7511 47.8 91.5411 48.37 91.2411 48.91C90.4011 50.35 89.4111 51.94 88.2711 53.68C87.1311 55.42 85.9611 57.1 84.7611 58.72C83.8611 59.92 82.6011 61.21 80.9811 62.59C79.3611 63.97 77.6211 65.14 75.7611 66.1C73.9011 67.06 72.1311 67.54 70.4511 67.54ZM79.9011 35.23C82.9011 31.69 85.9311 27.91 88.9911 23.89C92.1111 19.81 94.6911 15.67 96.7311 11.47C96.8511 11.17 97.1211 10.57 97.5411 9.67C97.9611 8.77 98.3511 7.78 98.7111 6.7C99.0711 5.56 99.2511 4.6 99.2511 3.82C99.2511 2.8 98.8611 2.29 98.0811 2.29H97.4511C96.6711 2.29 95.7411 2.83 94.6611 3.91C93.6411 4.99 92.5911 6.43 91.5111 8.22999C90.1311 10.51 88.7811 13.15 87.4611 16.15C86.1411 19.09 84.8511 22.21 83.5911 25.51C82.3311 28.81 81.1011 32.05 79.9011 35.23ZM92.6874 67.54C91.0074 67.54 89.7474 66.94 88.9074 65.74C88.0674 64.48 87.6474 62.8 87.6474 60.7C87.6474 60.4 87.6474 60.1 87.6474 59.8C87.6474 59.5 87.6774 59.2 87.7374 58.9C88.0374 56.62 88.5474 54.04 89.2674 51.16C90.0474 48.28 90.9474 45.25 91.9674 42.07C92.5674 40.27 93.3174 38.02 94.2174 35.32C95.1774 32.56 96.2874 29.62 97.5474 26.5C98.8074 23.32 100.187 20.17 101.687 17.05C103.247 13.93 104.957 11.11 106.817 8.59C108.677 6.01 110.627 3.94 112.667 2.38C114.767 0.819997 116.987 0.0399984 119.327 0.0399984C121.247 0.0399984 122.567 0.519998 123.287 1.48C124.007 2.38 124.367 3.46 124.367 4.72C124.367 6.04 124.127 7.39 123.647 8.77C123.167 10.09 122.687 11.2 122.207 12.1C121.127 14.26 119.717 16.69 117.977 19.39C116.237 22.09 114.407 24.61 112.487 26.95C111.347 28.45 109.937 30.13 108.257 31.99C106.577 33.85 104.987 35.56 103.487 37.12C102.047 38.68 100.997 39.76 100.337 40.36L98.8974 44.5C98.4774 45.64 98.0574 46.99 97.6374 48.55C97.2774 50.11 96.9474 51.67 96.6474 53.23C96.4074 54.73 96.1974 56.05 96.0174 57.19C95.9574 57.43 95.9274 57.67 95.9274 57.91C95.9274 58.15 95.9274 58.36 95.9274 58.54C95.9274 60.34 96.6174 61.24 97.9974 61.24C98.8374 61.24 99.8874 60.85 101.147 60.07C102.347 59.35 103.487 58.42 104.567 57.28C105.707 56.08 106.517 55.18 106.997 54.58C108.197 53.02 109.337 51.37 110.417 49.63C111.497 47.83 112.427 46.18 113.207 44.68C113.507 44.2 113.717 43.96 113.837 43.96C114.197 43.96 114.377 44.47 114.377 45.49C114.377 45.97 114.287 46.54 114.107 47.2C113.987 47.8 113.777 48.37 113.477 48.91C112.637 50.35 111.647 51.94 110.507 53.68C109.367 55.42 108.197 57.1 106.997 58.72C106.097 59.92 104.837 61.21 103.217 62.59C101.597 63.97 99.8574 65.14 97.9974 66.1C96.1374 67.06 94.3674 67.54 92.6874 67.54ZM102.137 35.23C105.137 31.69 108.167 27.91 111.227 23.89C114.347 19.81 116.927 15.67 118.967 11.47C119.087 11.17 119.357 10.57 119.777 9.67C120.197 8.77 120.587 7.78 120.947 6.7C121.307 5.56 121.487 4.6 121.487 3.82C121.487 2.8 121.097 2.29 120.317 2.29H119.687C118.907 2.29 117.977 2.83 116.897 3.91C115.877 4.99 114.827 6.43 113.747 8.22999C112.367 10.51 111.017 13.15 109.697 16.15C108.377 19.09 107.087 22.21 105.827 25.51C104.567 28.81 103.337 32.05 102.137 35.23ZM113.124 85.09C111.624 85.09 110.034 84.85 108.354 84.37C106.734 83.95 105.384 83.2 104.304 82.12C103.164 81.04 102.594 79.6 102.594 77.8C102.594 76.54 102.984 75.37 103.764 74.29C104.544 73.21 105.624 72.67 107.004 72.67C107.844 72.67 108.624 72.88 109.344 73.3C110.064 73.78 110.544 74.35 110.784 75.01C110.664 75.07 110.484 75.25 110.244 75.55C110.004 75.85 109.854 76.06 109.794 76.18C109.374 77.02 109.164 77.89 109.164 78.79C109.164 79.93 109.554 80.83 110.334 81.49C111.174 82.21 112.224 82.57 113.484 82.57C115.104 82.57 116.784 81.97 118.524 80.77C120.444 79.39 121.944 77.59 123.024 75.37C124.164 73.21 125.064 71.26 125.724 69.52L130.854 55.84C129.774 57.16 128.634 58.51 127.434 59.89C126.294 61.21 125.574 62.02 125.274 62.32C122.994 64.6 120.954 66.04 119.154 66.64C117.354 67.24 115.764 67.54 114.384 67.54C112.944 67.54 111.714 66.91 110.694 65.65C109.734 64.39 109.254 62.56 109.254 60.16C109.254 58.96 109.434 57.43 109.794 55.57C110.154 53.71 110.664 51.73 111.324 49.63C111.984 47.47 112.734 45.37 113.574 43.33C114.474 41.23 115.434 39.37 116.454 37.75C118.014 35.29 119.754 33.7 121.674 32.98C123.594 32.26 126.024 31.9 128.964 31.9C129.204 31.9 129.324 32.02 129.324 32.26C129.324 32.5 129.144 32.8 128.784 33.16C127.944 33.88 126.924 35.14 125.724 36.94C124.524 38.74 123.354 40.72 122.214 42.88C121.134 45.04 120.234 47.11 119.514 49.09C119.034 50.47 118.554 52.09 118.074 53.95C117.654 55.81 117.444 57.43 117.444 58.81C117.444 59.77 117.564 60.55 117.804 61.15C118.104 61.69 118.554 61.96 119.154 61.96C120.114 61.96 121.434 61.24 123.114 59.8C125.634 57.7 127.914 55.12 129.954 52.06C131.994 49 133.734 45.82 135.174 42.52C136.014 40.6 136.704 38.98 137.244 37.66C137.784 36.28 138.384 35.17 139.044 34.33C139.704 33.49 140.634 32.89 141.834 32.53C143.034 32.11 144.654 31.9 146.694 31.9H150.384C149.244 32.62 148.104 33.97 146.964 35.95C145.824 37.87 144.744 40.15 143.724 42.79C142.944 44.71 142.134 46.81 141.294 49.09C140.514 51.37 139.704 53.68 138.864 56.02C138.144 58.18 137.364 60.55 136.524 63.13C135.684 65.65 134.724 68.11 133.644 70.51C132.564 72.97 131.304 75.1 129.864 76.9C127.824 79.42 125.334 81.4 122.394 82.84C119.454 84.34 116.364 85.09 113.124 85.09ZM176.359 64.57C175.579 63.91 175.039 63.1 174.739 62.14C174.439 61.18 174.289 60.13 174.289 58.99C174.289 58.27 174.319 57.55 174.379 56.83C174.499 56.05 174.619 55.27 174.739 54.49C175.219 52.09 176.029 49.24 177.169 45.94C178.369 42.64 179.719 39.19 181.219 35.59C182.779 31.99 184.339 28.51 185.899 25.15C187.519 21.73 188.959 18.73 190.219 16.15C191.539 13.51 192.529 11.56 193.189 10.3C193.429 9.82 193.639 9.37 193.819 8.95C194.059 8.53 194.299 8.14 194.539 7.78L191.299 8.22999C188.599 8.59 185.809 9.16 182.929 9.94C180.109 10.72 177.559 11.74 175.279 13C173.059 14.2 171.439 15.67 170.419 17.41C170.359 17.59 170.239 17.68 170.059 17.68C169.939 17.68 169.849 17.56 169.789 17.32C169.669 17.08 169.639 16.81 169.699 16.51C170.299 14.95 171.049 13.45 171.949 12.01C172.849 10.57 173.719 9.43 174.559 8.59C175.879 7.21 177.679 6.22 179.959 5.62C182.239 5.02 184.579 4.63 186.979 4.45C189.439 4.27 191.539 4.18 193.279 4.18H211.009C215.149 4.18 218.449 4.81 220.909 6.07C223.429 7.33 225.229 9.01 226.309 11.11C227.389 13.15 227.809 15.34 227.569 17.68C227.329 20.2 226.609 22.39 225.409 24.25C224.209 26.11 222.709 27.7 220.909 29.02C219.169 30.28 217.339 31.3 215.419 32.08C213.559 32.8 211.819 33.34 210.199 33.7C215.239 34.66 218.839 36.31 220.999 38.65C223.159 40.99 224.239 43.78 224.239 47.02C224.239 49.6 223.609 52.03 222.349 54.31C221.149 56.53 219.499 58.54 217.399 60.34C215.599 61.9 213.229 63.31 210.289 64.57C207.349 65.77 204.169 66.73 200.749 67.45C197.329 68.17 193.939 68.53 190.579 68.53C187.759 68.53 185.089 68.2 182.569 67.54C180.049 66.94 177.979 65.95 176.359 64.57ZM187.339 64.57C188.179 64.69 189.019 64.78 189.859 64.84C190.699 64.9 191.539 64.93 192.379 64.93C195.319 64.93 198.199 64.51 201.019 63.67C203.839 62.77 206.299 61.36 208.399 59.44C210.559 57.52 212.089 55 212.989 51.88C213.529 50.14 213.799 48.37 213.799 46.57C213.799 43.75 213.079 41.23 211.639 39.01C210.259 36.73 208.069 35.41 205.069 35.05C204.409 35.23 203.419 35.44 202.099 35.68C200.779 35.92 199.399 36.13 197.959 36.31C196.519 36.49 195.289 36.58 194.269 36.58C193.309 36.58 192.829 36.37 192.829 35.95C192.829 35.59 193.099 35.17 193.639 34.69C194.179 34.15 194.779 33.7 195.439 33.34C196.099 32.92 196.639 32.68 197.059 32.62C198.139 32.44 199.399 32.35 200.839 32.35C201.619 32.35 202.399 32.38 203.179 32.44C204.019 32.5 204.889 32.59 205.789 32.71C207.709 32.11 209.299 31.3 210.559 30.28C211.819 29.26 212.899 28.3 213.799 27.4C215.239 25.9 216.349 24.19 217.129 22.27C217.909 20.29 218.299 18.37 218.299 16.51C218.299 14.05 217.699 12.16 216.499 10.84C215.359 9.46 213.829 8.47 211.909 7.87C209.989 7.27 207.919 6.94 205.699 6.88C204.619 8.32 203.479 10.03 202.279 12.01C201.139 13.93 200.059 15.91 199.039 17.95C198.019 19.99 197.119 21.88 196.339 23.62C194.659 27.22 192.889 31.15 191.029 35.41C189.229 39.67 187.729 43.81 186.529 47.83C185.929 49.69 185.329 51.7 184.729 53.86C184.189 55.96 183.919 57.85 183.919 59.53C183.919 60.85 184.159 61.96 184.639 62.86C185.119 63.76 186.019 64.33 187.339 64.57ZM245.967 23.8C244.407 23.26 243.627 22.24 243.627 20.74C243.627 19.36 244.167 17.95 245.247 16.51C246.387 15.01 247.617 14.05 248.937 13.63C249.237 13.51 249.477 13.45 249.657 13.45C249.897 13.45 250.137 13.45 250.377 13.45C251.397 13.45 252.237 13.75 252.897 14.35C253.557 14.95 253.887 15.64 253.887 16.42C253.887 17.5 253.317 18.4 252.177 19.12C251.277 19 250.407 19.21 249.567 19.75C248.727 20.29 247.977 20.95 247.317 21.73C246.717 22.51 246.267 23.2 245.967 23.8ZM230.487 67.54C229.707 67.54 228.957 67.36 228.237 67C227.517 66.7 226.917 66.07 226.437 65.11C225.777 63.67 225.447 61.96 225.447 59.98C225.447 57.82 225.777 55.42 226.437 52.78C227.097 50.08 227.967 47.32 229.047 44.5C229.467 43.48 230.007 42.22 230.667 40.72C231.327 39.22 232.107 37.72 233.007 36.22C233.907 34.72 234.927 33.49 236.067 32.53C237.267 31.51 238.557 31 239.937 31C240.597 31 241.527 31.03 242.727 31.09C243.927 31.15 244.797 31.15 245.337 31.09C244.977 31.33 244.557 31.81 244.077 32.53C243.597 33.25 243.147 34 242.727 34.78C242.307 35.5 241.977 36.07 241.737 36.49C240.177 39.61 238.707 42.7 237.327 45.76C235.947 48.82 234.897 51.76 234.177 54.58C234.057 55.06 233.967 55.54 233.907 56.02C233.847 56.5 233.817 56.95 233.817 57.37C233.817 59.11 234.387 59.98 235.527 59.98C236.007 59.98 236.517 59.86 237.057 59.62C237.657 59.32 238.347 58.87 239.127 58.27C240.507 57.19 241.707 55.96 242.727 54.58C243.927 53.02 245.067 51.37 246.147 49.63C247.227 47.83 248.157 46.18 248.937 44.68C249.237 44.2 249.447 43.96 249.567 43.96C249.927 43.96 250.107 44.47 250.107 45.49C250.107 45.97 250.017 46.54 249.837 47.2C249.717 47.8 249.507 48.37 249.207 48.91C248.367 50.35 247.377 51.94 246.237 53.68C245.097 55.42 243.927 57.1 242.727 58.72C241.887 59.86 240.777 61.12 239.397 62.5C238.017 63.88 236.547 65.08 234.987 66.1C233.427 67.06 231.927 67.54 230.487 67.54ZM250.539 67.54C248.859 67.54 247.599 66.94 246.759 65.74C245.919 64.48 245.499 62.8 245.499 60.7C245.499 60.4 245.499 60.1 245.499 59.8C245.499 59.5 245.529 59.2 245.589 58.9C245.889 56.62 246.399 54.04 247.119 51.16C247.899 48.28 248.799 45.25 249.819 42.07C250.419 40.27 251.169 38.02 252.069 35.32C253.029 32.56 254.139 29.62 255.399 26.5C256.659 23.32 258.039 20.17 259.539 17.05C261.099 13.93 262.809 11.11 264.669 8.59C266.529 6.01 268.479 3.94 270.519 2.38C272.619 0.819997 274.839 0.0399984 277.179 0.0399984C279.099 0.0399984 280.419 0.519998 281.139 1.48C281.859 2.38 282.219 3.46 282.219 4.72C282.219 6.04 281.979 7.39 281.499 8.77C281.019 10.09 280.539 11.2 280.059 12.1C278.979 14.26 277.569 16.69 275.829 19.39C274.089 22.09 272.259 24.61 270.339 26.95C269.199 28.45 267.789 30.13 266.109 31.99C264.429 33.85 262.839 35.56 261.339 37.12C259.899 38.68 258.849 39.76 258.189 40.36L256.749 44.5C256.329 45.64 255.909 46.99 255.489 48.55C255.129 50.11 254.799 51.67 254.499 53.23C254.259 54.73 254.049 56.05 253.869 57.19C253.809 57.43 253.779 57.67 253.779 57.91C253.779 58.15 253.779 58.36 253.779 58.54C253.779 60.34 254.469 61.24 255.849 61.24C256.689 61.24 257.739 60.85 258.999 60.07C260.199 59.35 261.339 58.42 262.419 57.28C263.559 56.08 264.369 55.18 264.849 54.58C266.049 53.02 267.189 51.37 268.269 49.63C269.349 47.83 270.279 46.18 271.059 44.68C271.359 44.2 271.569 43.96 271.689 43.96C272.049 43.96 272.229 44.47 272.229 45.49C272.229 45.97 272.139 46.54 271.959 47.2C271.839 47.8 271.629 48.37 271.329 48.91C270.489 50.35 269.499 51.94 268.359 53.68C267.219 55.42 266.049 57.1 264.849 58.72C263.949 59.92 262.689 61.21 261.069 62.59C259.449 63.97 257.709 65.14 255.849 66.1C253.989 67.06 252.219 67.54 250.539 67.54ZM259.989 35.23C262.989 31.69 266.019 27.91 269.079 23.89C272.199 19.81 274.779 15.67 276.819 11.47C276.939 11.17 277.209 10.57 277.629 9.67C278.049 8.77 278.439 7.78 278.799 6.7C279.159 5.56 279.339 4.6 279.339 3.82C279.339 2.8 278.949 2.29 278.169 2.29H277.539C276.759 2.29 275.829 2.83 274.749 3.91C273.729 4.99 272.679 6.43 271.599 8.22999C270.219 10.51 268.869 13.15 267.549 16.15C266.229 19.09 264.939 22.21 263.679 25.51C262.419 28.81 261.189 32.05 259.989 35.23ZM272.775 67.54C271.095 67.54 269.835 66.94 268.995 65.74C268.155 64.48 267.735 62.8 267.735 60.7C267.735 60.4 267.735 60.1 267.735 59.8C267.735 59.5 267.765 59.2 267.825 58.9C268.125 56.62 268.635 54.04 269.355 51.16C270.135 48.28 271.035 45.25 272.055 42.07C272.655 40.27 273.405 38.02 274.305 35.32C275.265 32.56 276.375 29.62 277.635 26.5C278.895 23.32 280.275 20.17 281.775 17.05C283.335 13.93 285.045 11.11 286.905 8.59C288.765 6.01 290.715 3.94 292.755 2.38C294.855 0.819997 297.075 0.0399984 299.415 0.0399984C301.335 0.0399984 302.655 0.519998 303.375 1.48C304.095 2.38 304.455 3.46 304.455 4.72C304.455 6.04 304.215 7.39 303.735 8.77C303.255 10.09 302.775 11.2 302.295 12.1C301.215 14.26 299.805 16.69 298.065 19.39C296.325 22.09 294.495 24.61 292.575 26.95C291.435 28.45 290.025 30.13 288.345 31.99C286.665 33.85 285.075 35.56 283.575 37.12C282.135 38.68 281.085 39.76 280.425 40.36L278.985 44.5C278.565 45.64 278.145 46.99 277.725 48.55C277.365 50.11 277.035 51.67 276.735 53.23C276.495 54.73 276.285 56.05 276.105 57.19C276.045 57.43 276.015 57.67 276.015 57.91C276.015 58.15 276.015 58.36 276.015 58.54C276.015 60.34 276.705 61.24 278.085 61.24C278.925 61.24 279.975 60.85 281.235 60.07C282.435 59.35 283.575 58.42 284.655 57.28C285.795 56.08 286.605 55.18 287.085 54.58C288.285 53.02 289.425 51.37 290.505 49.63C291.585 47.83 292.515 46.18 293.295 44.68C293.595 44.2 293.805 43.96 293.925 43.96C294.285 43.96 294.465 44.47 294.465 45.49C294.465 45.97 294.375 46.54 294.195 47.2C294.075 47.8 293.865 48.37 293.565 48.91C292.725 50.35 291.735 51.94 290.595 53.68C289.455 55.42 288.285 57.1 287.085 58.72C286.185 59.92 284.925 61.21 283.305 62.59C281.685 63.97 279.945 65.14 278.085 66.1C276.225 67.06 274.455 67.54 272.775 67.54ZM282.225 35.23C285.225 31.69 288.255 27.91 291.315 23.89C294.435 19.81 297.015 15.67 299.055 11.47C299.175 11.17 299.445 10.57 299.865 9.67C300.285 8.77 300.675 7.78 301.035 6.7C301.395 5.56 301.575 4.6 301.575 3.82C301.575 2.8 301.185 2.29 300.405 2.29H299.775C298.995 2.29 298.065 2.83 296.985 3.91C295.965 4.99 294.915 6.43 293.835 8.22999C292.455 10.51 291.105 13.15 289.785 16.15C288.465 19.09 287.175 22.21 285.915 25.51C284.655 28.81 283.425 32.05 282.225 35.23ZM293.212 85.09C291.712 85.09 290.122 84.85 288.442 84.37C286.822 83.95 285.472 83.2 284.392 82.12C283.252 81.04 282.682 79.6 282.682 77.8C282.682 76.54 283.072 75.37 283.852 74.29C284.632 73.21 285.712 72.67 287.092 72.67C287.932 72.67 288.712 72.88 289.432 73.3C290.152 73.78 290.632 74.35 290.872 75.01C290.752 75.07 290.572 75.25 290.332 75.55C290.092 75.85 289.942 76.06 289.882 76.18C289.462 77.02 289.252 77.89 289.252 78.79C289.252 79.93 289.642 80.83 290.422 81.49C291.262 82.21 292.312 82.57 293.572 82.57C295.192 82.57 296.872 81.97 298.612 80.77C300.532 79.39 302.032 77.59 303.112 75.37C304.252 73.21 305.152 71.26 305.812 69.52L310.942 55.84C309.862 57.16 308.722 58.51 307.522 59.89C306.382 61.21 305.662 62.02 305.362 62.32C303.082 64.6 301.042 66.04 299.242 66.64C297.442 67.24 295.852 67.54 294.472 67.54C293.032 67.54 291.802 66.91 290.782 65.65C289.822 64.39 289.342 62.56 289.342 60.16C289.342 58.96 289.522 57.43 289.882 55.57C290.242 53.71 290.752 51.73 291.412 49.63C292.072 47.47 292.822 45.37 293.662 43.33C294.562 41.23 295.522 39.37 296.542 37.75C298.102 35.29 299.842 33.7 301.762 32.98C303.682 32.26 306.112 31.9 309.052 31.9C309.292 31.9 309.412 32.02 309.412 32.26C309.412 32.5 309.232 32.8 308.872 33.16C308.032 33.88 307.012 35.14 305.812 36.94C304.612 38.74 303.442 40.72 302.302 42.88C301.222 45.04 300.322 47.11 299.602 49.09C299.122 50.47 298.642 52.09 298.162 53.95C297.742 55.81 297.532 57.43 297.532 58.81C297.532 59.77 297.652 60.55 297.892 61.15C298.192 61.69 298.642 61.96 299.242 61.96C300.202 61.96 301.522 61.24 303.202 59.8C305.722 57.7 308.002 55.12 310.042 52.06C312.082 49 313.822 45.82 315.262 42.52C316.102 40.6 316.792 38.98 317.332 37.66C317.872 36.28 318.472 35.17 319.132 34.33C319.792 33.49 320.722 32.89 321.922 32.53C323.122 32.11 324.742 31.9 326.782 31.9H330.472C329.332 32.62 328.192 33.97 327.052 35.95C325.912 37.87 324.832 40.15 323.812 42.79C323.032 44.71 322.222 46.81 321.382 49.09C320.602 51.37 319.792 53.68 318.952 56.02C318.232 58.18 317.452 60.55 316.612 63.13C315.772 65.65 314.812 68.11 313.732 70.51C312.652 72.97 311.392 75.1 309.952 76.9C307.912 79.42 305.422 81.4 302.482 82.84C299.542 84.34 296.452 85.09 293.212 85.09Z" fill="#0400DF"/>
</svg>
