<svg width="177" height="46" viewBox="0 0 177 46" fill="none" xmlns="http://www.w3.org/2000/svg">
<path d="M10.384 36.96C8.784 36.96 7.296 36.816 5.92 36.528C4.544 36.24 3.392 35.76 2.464 35.088C1.824 34.608 1.328 34 0.976 33.264C0.656 32.528 0.496 31.776 0.496 31.008C0.496 30.048 0.768 29.152 1.312 28.32C1.856 27.488 2.72 26.928 3.904 26.64C4.064 26.608 4.208 26.592 4.336 26.592C4.496 26.56 4.64 26.544 4.768 26.544C5.408 26.544 5.968 26.688 6.448 26.976C6.96 27.264 7.312 27.6 7.504 27.984C7.376 28.08 7.2 28.256 6.976 28.512C6.752 28.736 6.608 28.928 6.544 29.088C6.064 29.888 5.824 30.688 5.824 31.488C5.824 32.576 6.24 33.472 7.072 34.176C7.936 34.848 9.056 35.184 10.432 35.184C11.68 35.184 12.848 34.88 13.936 34.272C15.056 33.632 15.952 32.784 16.624 31.728C17.328 30.672 17.68 29.456 17.68 28.08C17.68 27.056 17.44 25.968 16.96 24.816C16.544 23.824 15.968 22.944 15.232 22.176C14.528 21.408 13.856 20.688 13.216 20.016C12.352 19.088 11.52 18.192 10.72 17.328C9.952 16.432 9.312 15.472 8.8 14.448C8.32 13.392 8.08 12.208 8.08 10.896C8.08 9.648 8.336 8.432 8.848 7.248C9.392 6.064 10.16 5.056 11.152 4.224C12.272 3.264 13.552 2.592 14.992 2.208C16.432 1.824 17.936 1.632 19.504 1.632C21.456 1.632 22.992 1.888 24.112 2.4C25.264 2.88 26.08 3.504 26.56 4.272C27.072 5.04 27.328 5.856 27.328 6.72C27.328 7.552 27.136 8.352 26.752 9.12C26.4 9.888 25.904 10.544 25.264 11.088C24.624 11.6 23.92 11.92 23.152 12.048C23.024 12.08 22.896 12.096 22.768 12.096C22.64 12.096 22.496 12.096 22.336 12.096C21.632 12.096 21.008 11.936 20.464 11.616C19.952 11.296 19.696 10.752 19.696 9.984C19.696 9.888 19.696 9.776 19.696 9.648C19.728 9.52 19.76 9.392 19.792 9.264C20.368 9.264 20.96 9.056 21.568 8.64C22.176 8.224 22.576 7.76 22.768 7.248C22.928 6.832 23.008 6.448 23.008 6.096C23.008 5.232 22.608 4.56 21.808 4.08C21.04 3.568 20.128 3.312 19.072 3.312C17.824 3.312 16.704 3.584 15.712 4.128C14.752 4.64 14 5.328 13.456 6.192C12.912 7.024 12.64 7.936 12.64 8.928C12.64 9.92 12.944 10.88 13.552 11.808C14.064 12.544 14.704 13.312 15.472 14.112C16.24 14.88 17.024 15.632 17.824 16.368C18.624 17.072 19.312 17.728 19.888 18.336C21.2 19.616 22.144 20.928 22.72 22.272C23.296 23.584 23.584 24.88 23.584 26.16C23.584 27.632 23.232 29.024 22.528 30.336C21.856 31.616 20.912 32.752 19.696 33.744C18.48 34.736 17.072 35.52 15.472 36.096C13.872 36.672 12.176 36.96 10.384 36.96ZM35.269 12.96C34.437 12.672 34.021 12.128 34.021 11.328C34.021 10.592 34.309 9.84 34.885 9.072C35.493 8.272 36.149 7.76 36.853 7.536C37.013 7.472 37.141 7.44 37.237 7.44C37.365 7.44 37.493 7.44 37.621 7.44C38.165 7.44 38.613 7.6 38.965 7.92C39.317 8.24 39.493 8.608 39.493 9.024C39.493 9.6 39.189 10.08 38.581 10.464C38.101 10.4 37.637 10.512 37.189 10.8C36.741 11.088 36.341 11.44 35.989 11.856C35.669 12.272 35.429 12.64 35.269 12.96ZM27.013 36.288C26.597 36.288 26.197 36.192 25.813 36C25.429 35.84 25.109 35.504 24.853 34.992C24.501 34.224 24.325 33.312 24.325 32.256C24.325 31.104 24.501 29.824 24.853 28.416C25.205 26.976 25.669 25.504 26.245 24C26.469 23.456 26.757 22.784 27.109 21.984C27.461 21.184 27.877 20.384 28.357 19.584C28.837 18.784 29.381 18.128 29.989 17.616C30.629 17.072 31.317 16.8 32.053 16.8C32.405 16.8 32.901 16.816 33.541 16.848C34.181 16.88 34.645 16.88 34.933 16.848C34.741 16.976 34.517 17.232 34.261 17.616C34.005 18 33.765 18.4 33.541 18.816C33.317 19.2 33.141 19.504 33.013 19.728C32.181 21.392 31.397 23.04 30.661 24.672C29.925 26.304 29.365 27.872 28.981 29.376C28.917 29.632 28.869 29.888 28.837 30.144C28.805 30.4 28.789 30.64 28.789 30.864C28.789 31.792 29.093 32.256 29.701 32.256C29.957 32.256 30.229 32.192 30.517 32.064C30.837 31.904 31.205 31.664 31.621 31.344C32.357 30.768 32.997 30.112 33.541 29.376C34.181 28.544 34.789 27.664 35.365 26.736C35.941 25.776 36.437 24.896 36.853 24.096C37.013 23.84 37.125 23.712 37.189 23.712C37.381 23.712 37.477 23.984 37.477 24.528C37.477 24.784 37.429 25.088 37.333 25.44C37.269 25.76 37.157 26.064 36.997 26.352C36.549 27.12 36.021 27.968 35.413 28.896C34.805 29.824 34.181 30.72 33.541 31.584C33.093 32.192 32.501 32.864 31.765 33.6C31.029 34.336 30.245 34.976 29.413 35.52C28.581 36.032 27.781 36.288 27.013 36.288ZM37.7073 36.288C36.8113 36.288 36.1393 35.968 35.6913 35.328C35.2433 34.656 35.0193 33.76 35.0193 32.64C35.0193 32.48 35.0193 32.32 35.0193 32.16C35.0193 32 35.0353 31.84 35.0673 31.68C35.2273 30.464 35.4993 29.088 35.8833 27.552C36.2993 26.016 36.7793 24.4 37.3233 22.704C37.6433 21.744 38.0433 20.544 38.5233 19.104C39.0353 17.632 39.6273 16.064 40.2993 14.4C40.9713 12.704 41.7073 11.024 42.5073 9.36C43.3393 7.696 44.2513 6.192 45.2433 4.848C46.2353 3.472 47.2753 2.368 48.3633 1.536C49.4833 0.703999 50.6673 0.287999 51.9153 0.287999C52.9393 0.287999 53.6433 0.543999 54.0273 1.056C54.4113 1.536 54.6033 2.112 54.6033 2.784C54.6033 3.488 54.4753 4.208 54.2193 4.944C53.9633 5.648 53.7073 6.24 53.4513 6.72C52.8753 7.872 52.1233 9.168 51.1953 10.608C50.2673 12.048 49.2913 13.392 48.2673 14.64C47.6593 15.44 46.9073 16.336 46.0113 17.328C45.1153 18.32 44.2673 19.232 43.4673 20.064C42.6993 20.896 42.1393 21.472 41.7873 21.792L41.0193 24C40.7953 24.608 40.5713 25.328 40.3473 26.16C40.1553 26.992 39.9793 27.824 39.8193 28.656C39.6913 29.456 39.5793 30.16 39.4833 30.768C39.4513 30.896 39.4353 31.024 39.4353 31.152C39.4353 31.28 39.4353 31.392 39.4353 31.488C39.4353 32.448 39.8033 32.928 40.5393 32.928C40.9873 32.928 41.5473 32.72 42.2193 32.304C42.8593 31.92 43.4673 31.424 44.0433 30.816C44.6513 30.176 45.0833 29.696 45.3393 29.376C45.9793 28.544 46.5873 27.664 47.1633 26.736C47.7393 25.776 48.2353 24.896 48.6513 24.096C48.8113 23.84 48.9233 23.712 48.9873 23.712C49.1793 23.712 49.2753 23.984 49.2753 24.528C49.2753 24.784 49.2273 25.088 49.1313 25.44C49.0673 25.76 48.9553 26.064 48.7953 26.352C48.3473 27.12 47.8193 27.968 47.2113 28.896C46.6033 29.824 45.9793 30.72 45.3393 31.584C44.8593 32.224 44.1873 32.912 43.3233 33.648C42.4593 34.384 41.5313 35.008 40.5393 35.52C39.5473 36.032 38.6033 36.288 37.7073 36.288ZM42.7473 19.056C44.3473 17.168 45.9633 15.152 47.5953 13.008C49.2593 10.832 50.6353 8.624 51.7233 6.384C51.7873 6.224 51.9313 5.904 52.1553 5.424C52.3793 4.944 52.5873 4.416 52.7793 3.84C52.9713 3.232 53.0673 2.72 53.0673 2.304C53.0673 1.76 52.8593 1.488 52.4433 1.488H52.1073C51.6913 1.488 51.1953 1.776 50.6193 2.352C50.0753 2.928 49.5153 3.696 48.9393 4.656C48.2033 5.872 47.4833 7.28 46.7793 8.88C46.0753 10.448 45.3873 12.112 44.7153 13.872C44.0433 15.632 43.3873 17.36 42.7473 19.056ZM49.5666 36.288C48.6706 36.288 47.9986 35.968 47.5506 35.328C47.1026 34.656 46.8786 33.76 46.8786 32.64C46.8786 32.48 46.8786 32.32 46.8786 32.16C46.8786 32 46.8946 31.84 46.9266 31.68C47.0866 30.464 47.3586 29.088 47.7426 27.552C48.1586 26.016 48.6386 24.4 49.1826 22.704C49.5026 21.744 49.9026 20.544 50.3826 19.104C50.8946 17.632 51.4866 16.064 52.1586 14.4C52.8306 12.704 53.5666 11.024 54.3666 9.36C55.1986 7.696 56.1106 6.192 57.1026 4.848C58.0946 3.472 59.1346 2.368 60.2226 1.536C61.3426 0.703999 62.5266 0.287999 63.7746 0.287999C64.7986 0.287999 65.5026 0.543999 65.8866 1.056C66.2706 1.536 66.4626 2.112 66.4626 2.784C66.4626 3.488 66.3346 4.208 66.0786 4.944C65.8226 5.648 65.5666 6.24 65.3106 6.72C64.7346 7.872 63.9826 9.168 63.0546 10.608C62.1266 12.048 61.1506 13.392 60.1266 14.64C59.5186 15.44 58.7666 16.336 57.8706 17.328C56.9746 18.32 56.1266 19.232 55.3266 20.064C54.5586 20.896 53.9986 21.472 53.6466 21.792L52.8786 24C52.6546 24.608 52.4306 25.328 52.2066 26.16C52.0146 26.992 51.8386 27.824 51.6786 28.656C51.5506 29.456 51.4386 30.16 51.3426 30.768C51.3106 30.896 51.2946 31.024 51.2946 31.152C51.2946 31.28 51.2946 31.392 51.2946 31.488C51.2946 32.448 51.6626 32.928 52.3986 32.928C52.8466 32.928 53.4066 32.72 54.0786 32.304C54.7186 31.92 55.3266 31.424 55.9026 30.816C56.5106 30.176 56.9426 29.696 57.1986 29.376C57.8386 28.544 58.4466 27.664 59.0226 26.736C59.5986 25.776 60.0946 24.896 60.5106 24.096C60.6706 23.84 60.7826 23.712 60.8466 23.712C61.0386 23.712 61.1346 23.984 61.1346 24.528C61.1346 24.784 61.0866 25.088 60.9906 25.44C60.9266 25.76 60.8146 26.064 60.6546 26.352C60.2066 27.12 59.6786 27.968 59.0706 28.896C58.4626 29.824 57.8386 30.72 57.1986 31.584C56.7186 32.224 56.0466 32.912 55.1826 33.648C54.3186 34.384 53.3906 35.008 52.3986 35.52C51.4066 36.032 50.4626 36.288 49.5666 36.288ZM54.6066 19.056C56.2066 17.168 57.8226 15.152 59.4546 13.008C61.1186 10.832 62.4946 8.624 63.5826 6.384C63.6466 6.224 63.7906 5.904 64.0146 5.424C64.2386 4.944 64.4466 4.416 64.6386 3.84C64.8306 3.232 64.9266 2.72 64.9266 2.304C64.9266 1.76 64.7186 1.488 64.3026 1.488H63.9666C63.5506 1.488 63.0546 1.776 62.4786 2.352C61.9346 2.928 61.3746 3.696 60.7986 4.656C60.0626 5.872 59.3426 7.28 58.6386 8.88C57.9346 10.448 57.2466 12.112 56.5746 13.872C55.9026 15.632 55.2466 17.36 54.6066 19.056ZM60.466 45.648C59.666 45.648 58.818 45.52 57.922 45.264C57.058 45.04 56.338 44.64 55.762 44.064C55.154 43.488 54.85 42.72 54.85 41.76C54.85 41.088 55.058 40.464 55.474 39.888C55.89 39.312 56.466 39.024 57.202 39.024C57.65 39.024 58.066 39.136 58.45 39.36C58.834 39.616 59.09 39.92 59.218 40.272C59.154 40.304 59.058 40.4 58.93 40.56C58.802 40.72 58.722 40.832 58.69 40.896C58.466 41.344 58.354 41.808 58.354 42.288C58.354 42.896 58.562 43.376 58.978 43.728C59.426 44.112 59.986 44.304 60.658 44.304C61.522 44.304 62.418 43.984 63.346 43.344C64.37 42.608 65.17 41.648 65.746 40.464C66.354 39.312 66.834 38.272 67.186 37.344L69.922 30.048C69.346 30.752 68.738 31.472 68.098 32.208C67.49 32.912 67.106 33.344 66.946 33.504C65.73 34.72 64.642 35.488 63.682 35.808C62.722 36.128 61.874 36.288 61.138 36.288C60.37 36.288 59.714 35.952 59.17 35.28C58.658 34.608 58.402 33.632 58.402 32.352C58.402 31.712 58.498 30.896 58.69 29.904C58.882 28.912 59.154 27.856 59.506 26.736C59.858 25.584 60.258 24.464 60.706 23.376C61.186 22.256 61.698 21.264 62.242 20.4C63.074 19.088 64.002 18.24 65.026 17.856C66.05 17.472 67.346 17.28 68.914 17.28C69.042 17.28 69.106 17.344 69.106 17.472C69.106 17.6 69.01 17.76 68.818 17.952C68.37 18.336 67.826 19.008 67.186 19.968C66.546 20.928 65.922 21.984 65.314 23.136C64.738 24.288 64.258 25.392 63.874 26.448C63.618 27.184 63.362 28.048 63.106 29.04C62.882 30.032 62.77 30.896 62.77 31.632C62.77 32.144 62.834 32.56 62.962 32.88C63.122 33.168 63.362 33.312 63.682 33.312C64.194 33.312 64.898 32.928 65.794 32.16C67.138 31.04 68.354 29.664 69.442 28.032C70.53 26.4 71.458 24.704 72.226 22.944C72.674 21.92 73.042 21.056 73.33 20.352C73.618 19.616 73.938 19.024 74.29 18.576C74.642 18.128 75.138 17.808 75.778 17.616C76.418 17.392 77.282 17.28 78.37 17.28H80.338C79.73 17.664 79.122 18.384 78.514 19.44C77.906 20.464 77.33 21.68 76.786 23.088C76.37 24.112 75.938 25.232 75.49 26.448C75.074 27.664 74.642 28.896 74.194 30.144C73.81 31.296 73.394 32.56 72.946 33.936C72.498 35.28 71.986 36.592 71.41 37.872C70.834 39.184 70.162 40.32 69.394 41.28C68.306 42.624 66.978 43.68 65.41 44.448C63.842 45.248 62.194 45.648 60.466 45.648ZM94.1913 34.704C93.7753 34.352 93.4873 33.92 93.3273 33.408C93.1673 32.896 93.0873 32.336 93.0873 31.728C93.0873 31.344 93.1033 30.96 93.1353 30.576C93.1993 30.16 93.2633 29.744 93.3273 29.328C93.5833 28.048 94.0153 26.528 94.6233 24.768C95.2633 23.008 95.9833 21.168 96.7833 19.248C97.6153 17.328 98.4473 15.472 99.2793 13.68C100.143 11.856 100.911 10.256 101.583 8.88C102.287 7.472 102.815 6.432 103.167 5.76C103.295 5.504 103.407 5.264 103.503 5.04C103.631 4.816 103.759 4.608 103.887 4.416L102.159 4.656C100.719 4.848 99.2313 5.152 97.6953 5.568C96.1913 5.984 94.8313 6.528 93.6152 7.2C92.4312 7.84 91.5672 8.624 91.0232 9.552C90.9912 9.648 90.9272 9.696 90.8312 9.696C90.7672 9.696 90.7192 9.632 90.6872 9.504C90.6232 9.376 90.6072 9.232 90.6392 9.072C90.9592 8.24 91.3592 7.44 91.8392 6.672C92.3193 5.904 92.7833 5.296 93.2313 4.848C93.9353 4.112 94.8953 3.584 96.1113 3.264C97.3273 2.944 98.5753 2.736 99.8553 2.64C101.167 2.544 102.287 2.496 103.215 2.496H112.671C114.879 2.496 116.639 2.832 117.951 3.504C119.295 4.176 120.255 5.072 120.831 6.192C121.407 7.28 121.631 8.448 121.503 9.696C121.375 11.04 120.991 12.208 120.351 13.2C119.711 14.192 118.911 15.04 117.951 15.744C117.023 16.416 116.047 16.96 115.023 17.376C114.031 17.76 113.103 18.048 112.239 18.24C114.927 18.752 116.847 19.632 117.999 20.88C119.151 22.128 119.727 23.616 119.727 25.344C119.727 26.72 119.391 28.016 118.719 29.232C118.079 30.416 117.199 31.488 116.079 32.448C115.119 33.28 113.855 34.032 112.287 34.704C110.719 35.344 109.023 35.856 107.199 36.24C105.375 36.624 103.567 36.816 101.775 36.816C100.271 36.816 98.8473 36.64 97.5033 36.288C96.1593 35.968 95.0553 35.44 94.1913 34.704ZM100.047 34.704C100.495 34.768 100.943 34.816 101.391 34.848C101.839 34.88 102.287 34.896 102.735 34.896C104.303 34.896 105.839 34.672 107.343 34.224C108.847 33.744 110.159 32.992 111.279 31.968C112.431 30.944 113.247 29.6 113.727 27.936C114.015 27.008 114.159 26.064 114.159 25.104C114.159 23.6 113.775 22.256 113.007 21.072C112.271 19.856 111.103 19.152 109.503 18.96C109.151 19.056 108.623 19.168 107.919 19.296C107.215 19.424 106.479 19.536 105.711 19.632C104.943 19.728 104.287 19.776 103.743 19.776C103.231 19.776 102.975 19.664 102.975 19.44C102.975 19.248 103.119 19.024 103.407 18.768C103.695 18.48 104.015 18.24 104.367 18.048C104.719 17.824 105.007 17.696 105.231 17.664C105.807 17.568 106.479 17.52 107.247 17.52C107.663 17.52 108.079 17.536 108.495 17.568C108.943 17.6 109.407 17.648 109.887 17.712C110.911 17.392 111.759 16.96 112.431 16.416C113.103 15.872 113.679 15.36 114.159 14.88C114.927 14.08 115.519 13.168 115.935 12.144C116.351 11.088 116.559 10.064 116.559 9.072C116.559 7.76 116.239 6.752 115.599 6.048C114.991 5.312 114.175 4.784 113.151 4.464C112.127 4.144 111.023 3.968 109.839 3.936C109.263 4.704 108.655 5.616 108.015 6.672C107.407 7.696 106.831 8.752 106.287 9.84C105.743 10.928 105.263 11.936 104.847 12.864C103.951 14.784 103.007 16.88 102.015 19.152C101.055 21.424 100.255 23.632 99.6153 25.776C99.2953 26.768 98.9753 27.84 98.6553 28.992C98.3673 30.112 98.2233 31.12 98.2233 32.016C98.2233 32.72 98.3513 33.312 98.6073 33.792C98.8633 34.272 99.3433 34.576 100.047 34.704ZM131.316 12.96C130.484 12.672 130.068 12.128 130.068 11.328C130.068 10.592 130.356 9.84 130.932 9.072C131.54 8.272 132.196 7.76 132.9 7.536C133.06 7.472 133.188 7.44 133.284 7.44C133.412 7.44 133.54 7.44 133.668 7.44C134.212 7.44 134.66 7.6 135.012 7.92C135.364 8.24 135.54 8.608 135.54 9.024C135.54 9.6 135.236 10.08 134.628 10.464C134.148 10.4 133.684 10.512 133.236 10.8C132.788 11.088 132.388 11.44 132.036 11.856C131.716 12.272 131.476 12.64 131.316 12.96ZM123.06 36.288C122.644 36.288 122.244 36.192 121.86 36C121.476 35.84 121.156 35.504 120.9 34.992C120.548 34.224 120.372 33.312 120.372 32.256C120.372 31.104 120.548 29.824 120.9 28.416C121.252 26.976 121.716 25.504 122.292 24C122.516 23.456 122.804 22.784 123.156 21.984C123.508 21.184 123.924 20.384 124.404 19.584C124.884 18.784 125.428 18.128 126.036 17.616C126.676 17.072 127.364 16.8 128.1 16.8C128.452 16.8 128.948 16.816 129.588 16.848C130.228 16.88 130.692 16.88 130.98 16.848C130.788 16.976 130.564 17.232 130.308 17.616C130.052 18 129.812 18.4 129.588 18.816C129.364 19.2 129.188 19.504 129.06 19.728C128.228 21.392 127.444 23.04 126.708 24.672C125.972 26.304 125.412 27.872 125.028 29.376C124.964 29.632 124.916 29.888 124.884 30.144C124.852 30.4 124.836 30.64 124.836 30.864C124.836 31.792 125.14 32.256 125.748 32.256C126.004 32.256 126.276 32.192 126.564 32.064C126.884 31.904 127.252 31.664 127.668 31.344C128.404 30.768 129.044 30.112 129.588 29.376C130.228 28.544 130.836 27.664 131.412 26.736C131.988 25.776 132.484 24.896 132.9 24.096C133.06 23.84 133.172 23.712 133.236 23.712C133.428 23.712 133.524 23.984 133.524 24.528C133.524 24.784 133.476 25.088 133.38 25.44C133.316 25.76 133.204 26.064 133.044 26.352C132.596 27.12 132.068 27.968 131.46 28.896C130.852 29.824 130.228 30.72 129.588 31.584C129.14 32.192 128.548 32.864 127.812 33.6C127.076 34.336 126.292 34.976 125.46 35.52C124.628 36.032 123.828 36.288 123.06 36.288ZM133.754 36.288C132.858 36.288 132.186 35.968 131.738 35.328C131.29 34.656 131.066 33.76 131.066 32.64C131.066 32.48 131.066 32.32 131.066 32.16C131.066 32 131.082 31.84 131.114 31.68C131.274 30.464 131.546 29.088 131.93 27.552C132.346 26.016 132.826 24.4 133.37 22.704C133.69 21.744 134.09 20.544 134.57 19.104C135.082 17.632 135.674 16.064 136.346 14.4C137.018 12.704 137.754 11.024 138.554 9.36C139.386 7.696 140.298 6.192 141.29 4.848C142.282 3.472 143.322 2.368 144.41 1.536C145.53 0.703999 146.714 0.287999 147.962 0.287999C148.986 0.287999 149.69 0.543999 150.074 1.056C150.458 1.536 150.65 2.112 150.65 2.784C150.65 3.488 150.522 4.208 150.266 4.944C150.01 5.648 149.754 6.24 149.498 6.72C148.922 7.872 148.17 9.168 147.242 10.608C146.314 12.048 145.338 13.392 144.314 14.64C143.706 15.44 142.954 16.336 142.058 17.328C141.162 18.32 140.314 19.232 139.514 20.064C138.746 20.896 138.186 21.472 137.834 21.792L137.066 24C136.842 24.608 136.618 25.328 136.394 26.16C136.202 26.992 136.026 27.824 135.866 28.656C135.738 29.456 135.626 30.16 135.53 30.768C135.498 30.896 135.482 31.024 135.482 31.152C135.482 31.28 135.482 31.392 135.482 31.488C135.482 32.448 135.85 32.928 136.586 32.928C137.034 32.928 137.594 32.72 138.266 32.304C138.906 31.92 139.514 31.424 140.09 30.816C140.698 30.176 141.13 29.696 141.386 29.376C142.026 28.544 142.634 27.664 143.21 26.736C143.786 25.776 144.282 24.896 144.698 24.096C144.858 23.84 144.97 23.712 145.034 23.712C145.226 23.712 145.322 23.984 145.322 24.528C145.322 24.784 145.274 25.088 145.178 25.44C145.114 25.76 145.002 26.064 144.842 26.352C144.394 27.12 143.866 27.968 143.258 28.896C142.65 29.824 142.026 30.72 141.386 31.584C140.906 32.224 140.234 32.912 139.37 33.648C138.506 34.384 137.578 35.008 136.586 35.52C135.594 36.032 134.65 36.288 133.754 36.288ZM138.794 19.056C140.394 17.168 142.01 15.152 143.642 13.008C145.306 10.832 146.682 8.624 147.77 6.384C147.834 6.224 147.978 5.904 148.202 5.424C148.426 4.944 148.634 4.416 148.826 3.84C149.018 3.232 149.114 2.72 149.114 2.304C149.114 1.76 148.906 1.488 148.49 1.488H148.154C147.738 1.488 147.242 1.776 146.666 2.352C146.122 2.928 145.562 3.696 144.986 4.656C144.25 5.872 143.53 7.28 142.826 8.88C142.122 10.448 141.434 12.112 140.762 13.872C140.09 15.632 139.434 17.36 138.794 19.056ZM145.614 36.288C144.718 36.288 144.046 35.968 143.598 35.328C143.15 34.656 142.926 33.76 142.926 32.64C142.926 32.48 142.926 32.32 142.926 32.16C142.926 32 142.942 31.84 142.974 31.68C143.134 30.464 143.406 29.088 143.79 27.552C144.206 26.016 144.686 24.4 145.23 22.704C145.55 21.744 145.95 20.544 146.43 19.104C146.942 17.632 147.534 16.064 148.206 14.4C148.878 12.704 149.614 11.024 150.414 9.36C151.246 7.696 152.158 6.192 153.15 4.848C154.142 3.472 155.182 2.368 156.27 1.536C157.39 0.703999 158.574 0.287999 159.822 0.287999C160.846 0.287999 161.55 0.543999 161.934 1.056C162.318 1.536 162.51 2.112 162.51 2.784C162.51 3.488 162.382 4.208 162.126 4.944C161.87 5.648 161.614 6.24 161.358 6.72C160.782 7.872 160.03 9.168 159.102 10.608C158.174 12.048 157.198 13.392 156.174 14.64C155.566 15.44 154.814 16.336 153.918 17.328C153.022 18.32 152.174 19.232 151.374 20.064C150.606 20.896 150.046 21.472 149.694 21.792L148.926 24C148.702 24.608 148.478 25.328 148.254 26.16C148.062 26.992 147.886 27.824 147.726 28.656C147.598 29.456 147.486 30.16 147.39 30.768C147.358 30.896 147.342 31.024 147.342 31.152C147.342 31.28 147.342 31.392 147.342 31.488C147.342 32.448 147.71 32.928 148.446 32.928C148.894 32.928 149.454 32.72 150.126 32.304C150.766 31.92 151.374 31.424 151.95 30.816C152.558 30.176 152.99 29.696 153.246 29.376C153.886 28.544 154.494 27.664 155.07 26.736C155.646 25.776 156.142 24.896 156.558 24.096C156.718 23.84 156.83 23.712 156.894 23.712C157.086 23.712 157.182 23.984 157.182 24.528C157.182 24.784 157.134 25.088 157.038 25.44C156.974 25.76 156.862 26.064 156.702 26.352C156.254 27.12 155.726 27.968 155.118 28.896C154.51 29.824 153.886 30.72 153.246 31.584C152.766 32.224 152.094 32.912 151.23 33.648C150.366 34.384 149.438 35.008 148.446 35.52C147.454 36.032 146.51 36.288 145.614 36.288ZM150.654 19.056C152.254 17.168 153.87 15.152 155.502 13.008C157.166 10.832 158.542 8.624 159.63 6.384C159.694 6.224 159.838 5.904 160.062 5.424C160.286 4.944 160.494 4.416 160.686 3.84C160.878 3.232 160.974 2.72 160.974 2.304C160.974 1.76 160.766 1.488 160.35 1.488H160.014C159.598 1.488 159.102 1.776 158.526 2.352C157.982 2.928 157.422 3.696 156.846 4.656C156.11 5.872 155.39 7.28 154.686 8.88C153.982 10.448 153.294 12.112 152.622 13.872C151.95 15.632 151.294 17.36 150.654 19.056ZM156.513 45.648C155.713 45.648 154.865 45.52 153.969 45.264C153.105 45.04 152.385 44.64 151.809 44.064C151.201 43.488 150.897 42.72 150.897 41.76C150.897 41.088 151.105 40.464 151.521 39.888C151.937 39.312 152.513 39.024 153.249 39.024C153.697 39.024 154.113 39.136 154.497 39.36C154.881 39.616 155.137 39.92 155.265 40.272C155.201 40.304 155.105 40.4 154.977 40.56C154.849 40.72 154.769 40.832 154.737 40.896C154.513 41.344 154.401 41.808 154.401 42.288C154.401 42.896 154.609 43.376 155.025 43.728C155.473 44.112 156.033 44.304 156.705 44.304C157.569 44.304 158.465 43.984 159.393 43.344C160.417 42.608 161.217 41.648 161.793 40.464C162.401 39.312 162.881 38.272 163.233 37.344L165.969 30.048C165.393 30.752 164.785 31.472 164.145 32.208C163.537 32.912 163.153 33.344 162.993 33.504C161.777 34.72 160.689 35.488 159.729 35.808C158.769 36.128 157.921 36.288 157.185 36.288C156.417 36.288 155.761 35.952 155.217 35.28C154.705 34.608 154.449 33.632 154.449 32.352C154.449 31.712 154.545 30.896 154.737 29.904C154.929 28.912 155.201 27.856 155.553 26.736C155.905 25.584 156.305 24.464 156.753 23.376C157.233 22.256 157.745 21.264 158.289 20.4C159.121 19.088 160.049 18.24 161.073 17.856C162.097 17.472 163.393 17.28 164.961 17.28C165.089 17.28 165.153 17.344 165.153 17.472C165.153 17.6 165.057 17.76 164.865 17.952C164.417 18.336 163.873 19.008 163.233 19.968C162.593 20.928 161.969 21.984 161.361 23.136C160.785 24.288 160.305 25.392 159.921 26.448C159.665 27.184 159.409 28.048 159.153 29.04C158.929 30.032 158.817 30.896 158.817 31.632C158.817 32.144 158.881 32.56 159.009 32.88C159.169 33.168 159.409 33.312 159.729 33.312C160.241 33.312 160.945 32.928 161.841 32.16C163.185 31.04 164.401 29.664 165.489 28.032C166.577 26.4 167.505 24.704 168.273 22.944C168.721 21.92 169.089 21.056 169.377 20.352C169.665 19.616 169.985 19.024 170.337 18.576C170.689 18.128 171.185 17.808 171.825 17.616C172.465 17.392 173.329 17.28 174.417 17.28H176.385C175.777 17.664 175.169 18.384 174.561 19.44C173.953 20.464 173.377 21.68 172.833 23.088C172.417 24.112 171.985 25.232 171.537 26.448C171.121 27.664 170.689 28.896 170.241 30.144C169.857 31.296 169.441 32.56 168.993 33.936C168.545 35.28 168.033 36.592 167.457 37.872C166.881 39.184 166.209 40.32 165.441 41.28C164.353 42.624 163.025 43.68 161.457 44.448C159.889 45.248 158.241 45.648 156.513 45.648Z" fill="#0400DF"/>
</svg>
