<svg width="91" height="66" viewBox="0 0 91 66" fill="none" xmlns="http://www.w3.org/2000/svg">
<g clip-path="url(#clip0_19_629)">
<path d="M2.29671 39.5873L19.5968 30.2178C19.6229 30.2094 19.6476 30.2004 19.6708 30.1909C19.9 30.0974 20.0306 29.9453 20.0701 29.8981C20.1252 29.8322 20.1621 29.7718 20.1821 29.7369C20.2516 29.6161 20.3005 29.4793 20.3275 29.4017C20.3947 29.2086 20.4766 28.9282 20.568 28.5931C20.7536 27.9126 21.0037 26.9127 21.2945 25.7066C21.877 23.2903 22.632 20.0086 23.3791 16.7102C24.1264 13.4107 24.8667 10.0903 25.4201 7.59501C25.5024 7.22402 25.5806 6.87126 25.654 6.53951L32.2889 22.6198L32.7095 23.6392L33.683 23.1213L64.5631 6.69132L61.1712 19.6423L60.4889 22.2475L62.7062 20.719L84.0823 5.98336L55.5517 36.7228L57.7399 18.0671L58.0856 15.12L56.0266 17.2567L38.5165 35.4275L38.0722 35.8886L38.305 36.485L46.69 57.9634L26.2978 49.1258L25.6513 48.8456L25.1699 49.3601L12.695 62.6942L16.1546 46.3819L16.3252 45.5777L15.5691 45.2548L2.29671 39.5873Z" fill="white" stroke="#0400DF" stroke-width="2"/>
</g>
<defs>
<clipPath id="clip0_19_629">
<rect width="91" height="66" fill="white"/>
</clipPath>
</defs>
</svg>
