<svg width="91" height="66" viewBox="0 0 91 66" fill="none" xmlns="http://www.w3.org/2000/svg">
<g clip-path="url(#clip0_200_362)">
<path d="M88.7033 39.5873L71.4032 30.2178C71.3771 30.2094 71.3524 30.2004 71.3292 30.1909C71.1 30.0974 70.9694 29.9453 70.9299 29.8981C70.8748 29.8322 70.8379 29.7718 70.8179 29.7369C70.7484 29.6161 70.6995 29.4793 70.6725 29.4017C70.6053 29.2086 70.5234 28.9282 70.432 28.5931C70.2464 27.9126 69.9963 26.9127 69.7055 25.7066C69.123 23.2903 68.368 20.0086 67.6209 16.7102C66.8736 13.4107 66.1333 10.0903 65.5799 7.59501C65.4976 7.22402 65.4194 6.87126 65.346 6.53951L58.7111 22.6198L58.2905 23.6392L57.317 23.1213L26.4369 6.69132L29.8288 19.6423L30.5111 22.2475L28.2938 20.719L6.91775 5.98336L35.4483 36.7228L33.2601 18.0671L32.9144 15.12L34.9734 17.2567L52.4835 35.4275L52.9278 35.8886L52.695 36.485L44.31 57.9634L64.7022 49.1258L65.3487 48.8456L65.8301 49.3601L78.305 62.6942L74.8454 46.3819L74.6748 45.5777L75.4309 45.2548L88.7033 39.5873Z" fill="white" stroke="#0400DF" stroke-width="2"/>
</g>
<defs>
<clipPath id="clip0_200_362">
<rect width="91" height="66" fill="white" transform="matrix(-1 0 0 1 91 0)"/>
</clipPath>
</defs>
</svg>
