<svg width="48" height="48" viewBox="0 0 48 48" fill="none" xmlns="http://www.w3.org/2000/svg">
<rect x="1" y="1" width="46" height="46" rx="23" fill="white"/>
<rect x="1" y="1" width="46" height="46" rx="23" stroke="#0400DF" stroke-width="2"/>
<path d="M33.6 15.1227L29.9935 33.9507C29.9935 33.9507 29.4889 35.2561 28.1027 34.6301L19.7815 28.0231L19.743 28.0036C20.867 26.9585 29.5829 18.8432 29.9639 18.4753C30.5536 17.9056 30.1875 17.5665 29.5028 17.9968L16.6282 26.4636L11.6612 24.7329C11.6612 24.7329 10.8796 24.445 10.8044 23.8189C10.7282 23.1918 11.6869 22.8527 11.6869 22.8527L31.9358 14.6267C31.9358 14.6267 33.6 13.8695 33.6 15.1227Z" fill="#0400DF"/>
</svg>
