<svg width="137" height="48" viewBox="0 0 137 48" fill="none" xmlns="http://www.w3.org/2000/svg">
<rect x="1" y="1" width="135" height="46" rx="23" fill="white"/>
<rect x="1" y="1" width="135" height="46" rx="23" stroke="#0400DF" stroke-width="2"/>
<path d="M18.9939 19.653V21.07C18.2746 20.4287 17.4122 20.108 16.4069 20.108C15.3236 20.108 14.4049 20.5023 13.6509 21.291C12.9056 22.071 12.5329 23.0113 12.5329 24.112C12.5329 25.1953 12.9012 26.1313 13.6379 26.92C14.3832 27.7 15.2976 28.09 16.3809 28.09C17.3689 28.09 18.2399 27.752 18.9939 27.076V28.519C18.2139 28.9783 17.3559 29.208 16.4199 29.208C15.0159 29.208 13.8112 28.7183 12.8059 27.739C11.8092 26.7597 11.3109 25.5637 11.3109 24.151C11.3109 22.7037 11.8179 21.4817 12.8319 20.485C13.8459 19.4883 15.0766 18.99 16.5239 18.99C17.4512 18.99 18.2746 19.211 18.9939 19.653ZM20.7116 23.67C21.3443 23.046 22.1156 22.734 23.0256 22.734C23.9356 22.734 24.7026 23.046 25.3266 23.67C25.9593 24.294 26.2756 25.061 26.2756 25.971C26.2756 26.881 25.9593 27.648 25.3266 28.272C24.7026 28.896 23.9356 29.208 23.0256 29.208C22.1156 29.208 21.3443 28.896 20.7116 28.272C20.0876 27.648 19.7756 26.881 19.7756 25.971C19.7756 25.061 20.0876 24.294 20.7116 23.67ZM24.4946 24.476C24.0873 24.06 23.5976 23.852 23.0256 23.852C22.4536 23.852 21.964 24.06 21.5566 24.476C21.1493 24.892 20.9456 25.3903 20.9456 25.971C20.9456 26.543 21.1493 27.0413 21.5566 27.466C21.964 27.882 22.4536 28.09 23.0256 28.09C23.5976 28.09 24.0873 27.882 24.4946 27.466C24.902 27.0413 25.1056 26.543 25.1056 25.971C25.1056 25.3903 24.902 24.892 24.4946 24.476ZM30.2801 28.168C30.8955 28.168 31.3765 27.9557 31.7231 27.531C32.0785 27.1063 32.2561 26.582 32.2561 25.958C32.2561 25.3427 32.0785 24.827 31.7231 24.411C31.3678 23.9863 30.8868 23.774 30.2801 23.774C29.6995 23.774 29.2315 23.9907 28.8761 24.424C28.5295 24.8487 28.3561 25.36 28.3561 25.958C28.3561 26.5647 28.5295 27.0847 28.8761 27.518C29.2228 27.9513 29.6908 28.168 30.2801 28.168ZM28.4211 22.916V23.93H28.4471C28.9758 23.1327 29.6821 22.734 30.5661 22.734C31.4155 22.734 32.1045 23.0503 32.6331 23.683C33.1618 24.307 33.4261 25.0523 33.4261 25.919C33.4261 26.8377 33.1661 27.6177 32.6461 28.259C32.1261 28.8917 31.4155 29.208 30.5141 29.208C30.0981 29.208 29.7081 29.104 29.3441 28.896C28.9888 28.688 28.6898 28.4063 28.4471 28.051H28.4211V32.484H27.2511V22.916H28.4211ZM36.3728 27.96L33.5908 22.916H34.9558L37.0098 26.777L38.9208 22.916H40.2338L35.3068 32.484H33.9808L36.3728 27.96ZM51.8875 19.653V21.07C51.1681 20.4287 50.3058 20.108 49.3005 20.108C48.2171 20.108 47.2985 20.5023 46.5445 21.291C45.7991 22.071 45.4265 23.0113 45.4265 24.112C45.4265 25.1953 45.7948 26.1313 46.5315 26.92C47.2768 27.7 48.1911 28.09 49.2745 28.09C50.2625 28.09 51.1335 27.752 51.8875 27.076V28.519C51.1075 28.9783 50.2495 29.208 49.3135 29.208C47.9095 29.208 46.7048 28.7183 45.6995 27.739C44.7028 26.7597 44.2045 25.5637 44.2045 24.151C44.2045 22.7037 44.7115 21.4817 45.7255 20.485C46.7395 19.4883 47.9701 18.99 49.4175 18.99C50.3448 18.99 51.1681 19.211 51.8875 19.653ZM53.6052 23.67C54.2378 23.046 55.0092 22.734 55.9192 22.734C56.8292 22.734 57.5962 23.046 58.2202 23.67C58.8528 24.294 59.1692 25.061 59.1692 25.971C59.1692 26.881 58.8528 27.648 58.2202 28.272C57.5962 28.896 56.8292 29.208 55.9192 29.208C55.0092 29.208 54.2378 28.896 53.6052 28.272C52.9812 27.648 52.6692 26.881 52.6692 25.971C52.6692 25.061 52.9812 24.294 53.6052 23.67ZM57.3882 24.476C56.9808 24.06 56.4912 23.852 55.9192 23.852C55.3472 23.852 54.8575 24.06 54.4502 24.476C54.0428 24.892 53.8392 25.3903 53.8392 25.971C53.8392 26.543 54.0428 27.0413 54.4502 27.466C54.8575 27.882 55.3472 28.09 55.9192 28.09C56.4912 28.09 56.9808 27.882 57.3882 27.466C57.7955 27.0413 57.9992 26.543 57.9992 25.971C57.9992 25.3903 57.7955 24.892 57.3882 24.476ZM61.4057 22.916V23.735H61.4317C61.605 23.4143 61.8564 23.1673 62.1857 22.994C62.5237 22.8207 62.8834 22.734 63.2647 22.734C64.062 22.734 64.621 22.968 64.9417 23.436C65.2624 23.904 65.4227 24.5497 65.4227 25.373V29H64.2527V25.516C64.2527 24.918 64.166 24.4803 63.9927 24.203C63.828 23.917 63.4684 23.774 62.9137 23.774C62.671 23.774 62.4587 23.8043 62.2767 23.865C62.0947 23.9257 61.9517 24.0253 61.8477 24.164C61.7437 24.3027 61.657 24.437 61.5877 24.567C61.527 24.6883 61.4837 24.866 61.4577 25.1C61.4317 25.3253 61.4144 25.503 61.4057 25.633C61.4057 25.763 61.4057 25.9537 61.4057 26.205V29H60.2357V22.916H61.4057ZM68.3794 24.008V29H67.2094V24.008H66.5724V22.916H67.2094V20.589H68.3794V22.916H69.5234V24.008H68.3794ZM71.4114 22.916V23.904H71.4504C71.5978 23.54 71.8144 23.254 72.1004 23.046C72.3951 22.838 72.7331 22.734 73.1144 22.734C73.4438 22.734 73.7644 22.8337 74.0764 23.033L73.5434 24.099C73.3528 23.9343 73.1144 23.852 72.8284 23.852C72.5251 23.852 72.2738 23.917 72.0744 24.047C71.8751 24.1683 71.7278 24.346 71.6324 24.58C71.5458 24.8053 71.4851 25.0307 71.4504 25.256C71.4244 25.4727 71.4114 25.724 71.4114 26.01V29H70.2414V22.916H71.4114ZM77.347 28.168C77.9624 28.168 78.4434 27.9557 78.79 27.531C79.1454 27.1063 79.323 26.582 79.323 25.958C79.323 25.3427 79.1454 24.827 78.79 24.411C78.4347 23.9863 77.9537 23.774 77.347 23.774C76.7664 23.774 76.2984 23.9907 75.943 24.424C75.5964 24.8487 75.423 25.36 75.423 25.958C75.423 26.5647 75.5964 27.0847 75.943 27.518C76.2897 27.9513 76.7577 28.168 77.347 28.168ZM80.428 22.916V29H79.258V28.051H79.232C78.712 28.8223 78.023 29.208 77.165 29.208C76.2724 29.208 75.5617 28.8917 75.033 28.259C74.513 27.6177 74.253 26.8377 74.253 25.919C74.253 25.0523 74.5174 24.307 75.046 23.683C75.5747 23.0503 76.268 22.734 77.126 22.734C78.0014 22.734 78.7034 23.1327 79.232 23.93H79.258V22.916H80.428ZM86.4167 23.137V24.645C85.94 24.099 85.3593 23.826 84.6747 23.826C84.1113 23.826 83.6303 24.0383 83.2317 24.463C82.8417 24.8877 82.6467 25.386 82.6467 25.958C82.6467 26.582 82.8417 27.0977 83.2317 27.505C83.6303 27.9123 84.1373 28.116 84.7527 28.116C85.3853 28.116 85.94 27.8473 86.4167 27.31V28.805C85.914 29.0737 85.355 29.208 84.7397 29.208C83.8383 29.208 83.067 28.9003 82.4257 28.285C81.793 27.6697 81.4767 26.9113 81.4767 26.01C81.4767 25.074 81.793 24.294 82.4257 23.67C83.067 23.046 83.86 22.734 84.8047 22.734C85.42 22.734 85.9573 22.8683 86.4167 23.137ZM89.022 24.008V29H87.852V24.008H87.215V22.916H87.852V20.589H89.022V22.916H90.166V24.008H89.022Z" fill="#0400DF"/>
<path fill-rule="evenodd" clip-rule="evenodd" d="M107 13H117C118.105 13 119 13.8954 119 15V30H121V15C121 12.7909 119.209 11 117 11H107V13ZM105 17H114C114.552 17 115 17.4477 115 18V32C115 32.5523 114.552 33 114 33H105C104.448 33 104 32.5523 104 32V18C104 17.4477 104.448 17 105 17ZM102 18C102 16.3431 103.343 15 105 15H114C115.657 15 117 16.3431 117 18V32C117 33.6569 115.657 35 114 35H105C103.343 35 102 33.6569 102 32V18Z" fill="#0400DF"/>
</svg>
